<svg xmlns="http://www.w3.org/2000/svg" xmlns:xlink="http://www.w3.org/1999/xlink">
  <defs>
    <symbol id="rd-icon-spotter" viewBox="0 0 24 24" fill="none" stroke="currentColor" stroke-width="1.5" stroke-linecap="round" stroke-linejoin="round">
      <!-- Scales of justice icon -->
      <line x1="12" y1="3" x2="12" y2="21"/>
      <line x1="8" y1="21" x2="16" y2="21"/>
      <line x1="5" y1="6" x2="19" y2="6"/>
      <path d="M5 6L3 12c0 1.1 1.8 2 4 2s4-.9 4-2L5 6z" fill="currentColor" opacity="0.15"/>
      <path d="M5 6L3 12c0 1.1 1.8 2 4 2s4-.9 4-2L5 6z"/>
      <path d="M19 6L17 12c0 1.1-1.8 2-4 2s-4-.9-4-2L19 6z" fill="currentColor" opacity="0.15"/>
      <path d="M19 6L17 12c0 1.1-1.8 2-4 2s-4-.9-4-2L19 6z"/>
      <!-- Small circle at the top -->
      <circle cx="12" cy="3" r="1" fill="currentColor"/>
    </symbol>
  </defs>
</svg>
